<svg width="1920" height="1080" viewBox="0 0 1920 1080" fill="none" xmlns="http://www.w3.org/2000/svg">
<path d="M-1.05014e-05 473.845C-1.05014e-05 473.845 24.1501 422.018 51.2583 548.671C78.3664 675.323 83.2892 706.987 104.238 706.987C125.188 706.987 127.638 649.436 133.819 597.61C139.978 545.783 148.609 517.008 162.163 517.008C175.717 517.008 193.466 530.107 222.539 773.149C245.938 968.852 310.022 853.751 310.022 706.935C310.022 615.452 329.735 499.681 361.832 491.688C361.832 491.688 386.402 470.905 399.956 580.282C413.51 689.66 472.649 683.884 494.834 571.671C517.02 459.457 544.128 557.283 544.128 557.283C544.128 557.283 576.159 784.649 640.221 574.558C704.283 364.468 762.207 801.925 762.207 801.925C762.207 801.925 781.92 960.241 812.715 965.965C843.51 971.689 865.695 949.72 891.567 714.619C917.439 479.518 974.128 594.67 974.128 594.67C974.128 594.67 1020.95 787.537 1078.85 591.782C1136.75 396.028 1178.65 714.98 1178.65 714.98C1178.65 714.98 1219.32 913.003 1271.06 714.98C1322.8 516.957 1348.68 479.518 1388.1 652.221C1427.53 824.924 1444.77 683.884 1453.4 643.609C1462.03 603.334 1471.88 574.507 1491.59 580.283C1511.3 586.058 1550.73 868.088 1550.73 868.088C1550.73 868.088 1565.52 1000 1591.39 1000C1617.26 1000 1636.98 997.627 1669.01 655.109C1701.04 312.59 1788.52 320.377 1819.32 463.274C1850.11 606.17 1920 560.12 1920 387.416C1920 214.713 1920 149.254 1920 149.254L0 149.254L-1.54209e-06 180.917L-1.05014e-05 473.845Z" fill="#C65F00" fill-opacity="0.3"/>
<path d="M-1.29018e-07 290.519C-1.29018e-07 290.519 24.1501 249.057 51.2583 350.379C78.3664 451.701 83.2892 477.032 104.238 477.032C125.188 477.032 127.638 430.991 133.819 389.53C139.978 348.069 148.609 325.049 162.163 325.049C175.717 325.049 193.466 335.528 222.539 529.962C245.938 686.524 310.022 594.443 310.022 476.991C310.022 403.805 329.735 311.187 361.832 304.793C361.832 304.793 386.402 288.167 399.956 375.669C413.51 463.17 472.649 458.55 494.834 368.779C517.02 279.008 544.128 357.269 544.128 357.269C544.128 357.269 576.159 539.162 640.221 371.089C704.283 203.017 762.207 552.982 762.207 552.982C762.207 552.982 781.921 679.635 812.715 684.214C843.51 688.794 865.695 671.219 891.567 483.138C917.439 295.057 974.128 387.179 974.128 387.179C974.128 387.179 1020.95 541.472 1078.85 384.868C1136.75 228.265 1178.65 483.427 1178.65 483.427C1178.65 483.427 1219.32 641.845 1271.06 483.427C1322.8 325.008 1348.68 295.057 1388.1 433.219C1427.53 571.382 1444.77 458.55 1453.4 426.33C1462.03 394.11 1471.88 371.048 1491.59 375.669C1511.3 380.289 1550.73 605.913 1550.73 605.913C1550.73 605.913 1565.52 711.443 1591.39 711.443C1617.26 711.443 1636.98 709.545 1669.01 435.53C1701.04 161.515 1788.52 167.744 1819.32 282.062C1850.11 396.379 1920 359.538 1920 221.376C1920 83.2131 1920 30.846 1920 30.846L0 30.8457L-5.3029e-07 56.1762L-1.29018e-07 290.519Z" fill="#E28000" fill-opacity="0.94"/>
<path d="M-2.78241e-06 145.402C-2.78241e-06 145.402 24.1501 122.186 51.2583 178.92C78.3664 235.654 83.2892 249.838 104.238 249.838C125.188 249.838 127.638 224.058 133.819 200.842C139.978 177.626 148.609 164.737 162.163 164.737C175.717 164.737 193.466 170.604 222.539 279.476C245.938 367.142 310.022 315.582 310.022 249.815C310.022 208.835 329.735 156.975 361.832 153.394C361.832 153.394 386.402 144.085 399.956 193.081C413.51 242.076 472.649 239.489 494.834 189.223C517.02 138.957 544.128 182.778 544.128 182.778C544.128 182.778 576.159 284.627 640.221 190.516C704.283 96.4058 762.207 292.366 762.207 292.366C762.207 292.366 781.921 363.284 812.715 365.848C843.51 368.412 865.695 358.571 891.567 253.257C917.439 147.943 974.128 199.526 974.128 199.526C974.128 199.526 1020.95 285.921 1078.85 198.232C1136.75 110.543 1178.65 253.419 1178.65 253.419C1178.65 253.419 1219.32 342.124 1271.06 253.419C1322.8 164.714 1348.68 147.943 1388.1 225.306C1427.53 302.669 1444.77 239.489 1453.4 221.448C1462.03 203.407 1471.88 190.493 1491.59 193.081C1511.3 195.668 1550.73 322.004 1550.73 322.004C1550.73 322.004 1565.52 381.094 1591.39 381.094C1617.26 381.094 1636.98 380.032 1669.01 226.599C1701.04 73.167 1788.52 76.6552 1819.32 140.666C1850.11 204.677 1920 184.049 1920 106.686C1920 29.3226 1920 0.000106822 1920 0.000106822L0 0L-7.89122e-07 14.1836L-2.78241e-06 145.402Z" fill="#FFC149"/>
</svg>
